<?xml version="1.0" encoding="utf-8"?>
<!-- Generator: Adobe Illustrator 25.4.1, SVG Export Plug-In . SVG Version: 6.00 Build 0)  -->
<svg version="1.1" id="Ebene_1" xmlns="http://www.w3.org/2000/svg" xmlns:xlink="http://www.w3.org/1999/xlink" x="0px" y="0px"
	 viewBox="0 0 200 200" style="enable-background:new 0 0 200 200;" xml:space="preserve">
<style type="text/css">
	.st0{fill:#E9F4F3;}
	.st1{fill:none;stroke:#99DDD4;stroke-width:2;stroke-miterlimit:10;}
	.st2{fill:#3C2B3F;}
</style>
<path class="st0" d="M10.2,146.4C0.1,104.1,35.6,99.7,45,72.6c9-25.9,3.6-46.8,16.3-51.4c47.4-17.1,62,21,105.2,25.9
	c33.4,3.8,19.8,38.1-0.1,69.6s29.5,64.6-16.1,75c-38.2,8.7-38.4-13.3-63.8-20C50,162.2,17.1,175.2,10.2,146.4z"/>
<path class="st1" d="M22.3,153c-19.1-39.1,14.1-38.6,17.4-67.1c3.1-27.3-7.9-61.5,3.5-68.8c42.5-27,20.6,27.8,109.6,17.4
	c33.4-3.9,27.6,32.9,15.1,67.9c-12.6,35,42.9,56.5,0.7,76.7c-35.4,16.9-40.4-4.6-66.7-5.6C64.1,172.2,35.3,179.6,22.3,153z"/>
<path class="st2" d="M57.3,163.2c-0.5,0-0.9-0.3-1.1-0.7c-0.2-0.4-0.2-0.9,0.1-1.3l43.5-64.3c0.2-0.4,0.6-0.6,1.1-0.6
	c0.4,0,0.8,0.2,1.1,0.5l45.9,64.2c0.3,0.4,0.3,0.9,0.1,1.3c-0.2,0.4-0.7,0.7-1.1,0.7L57.3,163.2L57.3,163.2z M100.9,99.9l-41.1,60.7
	l84.5-0.1L100.9,99.9z"/>
<path class="st2" d="M75.3,128.4c-0.3,0-0.7-0.1-0.9-0.4l-11-11.7c-0.5-0.5-0.5-1.3,0.1-1.8c0.5-0.5,1.3-0.5,1.8,0.1l11,11.7
	c0.5,0.5,0.5,1.3-0.1,1.8C75.9,128.3,75.6,128.4,75.3,128.4z"/>
<path class="st2" d="M51.8,163.2H29.9c-0.5,0-0.9-0.3-1.2-0.7c-0.2-0.4-0.2-1,0.1-1.4l34.4-46.5c0.4-0.6,1.2-0.7,1.8-0.3
	c0.6,0.4,0.7,1.2,0.3,1.8l-32.8,44.5h19.4c0.7,0,1.3,0.6,1.3,1.3C53.1,162.6,52.5,163.2,51.8,163.2z"/>
<path class="st2" d="M172.7,163.2h-20.6c-0.7,0-1.3-0.6-1.3-1.3s0.6-1.3,1.3-1.3h18l-33.4-45.8l-8.4,11.6c-0.4,0.6-1.2,0.7-1.8,0.3
	c-0.6-0.4-0.7-1.2-0.3-1.8l9.4-13c0.2-0.3,0.6-0.5,1-0.5l0,0c0.4,0,0.8,0.2,1,0.5l35.9,49.3c0.3,0.4,0.3,0.9,0.1,1.3
	C173.6,163,173.1,163.2,172.7,163.2z"/>
<path class="st2" d="M53.7,120.8c-0.5,0-0.9-0.3-1.1-0.7c-4-7.6-6-16.2-6-24.9c0-29.8,24.3-54.1,54.1-54.1s54.1,24.3,54.1,54.1
	c0,8.1-1.8,16-5.2,23.3c-0.3,0.6-1.1,0.9-1.7,0.6c-0.6-0.3-0.9-1.1-0.6-1.7c3.3-6.9,5-14.4,5-22.1c0-28.4-23.1-51.5-51.5-51.5
	S49.3,66.9,49.3,95.3c0,8.3,1.9,16.3,5.7,23.7c0.3,0.6,0.1,1.4-0.6,1.7C54.1,120.7,53.9,120.8,53.7,120.8z"/>
<path class="st2" d="M55.5,145.3c-0.3,0-0.6-0.1-0.9-0.3l-4.1-3.8c-0.5-0.5-0.6-1.3-0.1-1.8s1.3-0.6,1.8-0.1l3.1,2.9l7.7-8.8
	c0.2-0.3,0.6-0.4,0.9-0.4s0.7,0.1,0.9,0.3l3.7,3.4c0.5,0.5,0.6,1.3,0.1,1.8s-1.3,0.6-1.8,0.1l-2.7-2.5l-7.7,8.8
	C56.2,145.1,55.9,145.2,55.5,145.3L55.5,145.3z"/>
<path class="st2" d="M111,134.1c-0.3,0-0.6-0.1-0.9-0.3l-9.2-8.6l-9.4,8.6c-0.5,0.4-1.2,0.5-1.7,0.1l-4.7-3.8
	c-0.6-0.4-0.6-1.3-0.2-1.8c0.4-0.6,1.3-0.6,1.8-0.2l3.8,3.1l9.4-8.6c0.5-0.5,1.3-0.4,1.8,0l9.3,8.7l4.3-3.2c0.6-0.4,1.4-0.3,1.8,0.3
	s0.3,1.4-0.3,1.8l-5.2,3.8C111.5,134,111.2,134.1,111,134.1z"/>
<path class="st2" d="M146.7,144.8c-0.3,0-0.7-0.1-0.9-0.4l-7.6-7.5l-2.3,1.7c-0.6,0.4-1.4,0.3-1.8-0.3c-0.4-0.6-0.3-1.4,0.3-1.8
	l3.2-2.4c0.5-0.4,1.2-0.3,1.7,0.1l7.5,7.4l3.7-3.8c0.5-0.5,1.3-0.5,1.8,0s0.5,1.3,0,1.8l-4.7,4.7
	C147.4,144.6,147.1,144.8,146.7,144.8z"/>
<path class="st2" d="M100,94.5c-0.5,0-1-0.3-1.2-0.9l-6.4-18.3c-0.2-0.7,0.1-1.4,0.8-1.6l17.6-6.2c0.4-0.2,1-0.1,1.3,0.3
	c0.4,0.3,0.5,0.8,0.4,1.3l-1.8,6.8l5.8,4.7c0.4,0.3,0.5,0.8,0.5,1.2s-0.4,0.8-0.8,1l-16.4,5.7l1.5,4.3c0.2,0.7-0.1,1.4-0.8,1.6
	C100.3,94.4,100.1,94.5,100,94.5z M95.2,75.6L98.9,86l14.2-5l-4.7-3.7c-0.4-0.3-0.6-0.8-0.4-1.3l1.4-5.3L95.2,75.6z"/>
</svg>
