<?xml version="1.0" encoding="utf-8"?>
<!-- Generator: Adobe Illustrator 25.4.1, SVG Export Plug-In . SVG Version: 6.00 Build 0)  -->
<svg version="1.1" id="Ebene_1" xmlns="http://www.w3.org/2000/svg" xmlns:xlink="http://www.w3.org/1999/xlink" x="0px" y="0px"
	 viewBox="0 0 200 200" style="enable-background:new 0 0 200 200;" xml:space="preserve">
<style type="text/css">
	.st0{fill:#E9F4F3;}
	.st1{fill:none;stroke:#99DDD4;stroke-width:2;stroke-miterlimit:10;}
	.st2{fill:#3C2B3F;}
</style>
<path class="st0" d="M142.5,175.1c-43.2,14.5-46.2-10.1-74.6-19.9c-27.2-9.5-49-3.8-53.9-17.1c-17.9-49.7,22-65,27.2-110.3
	c4-35,40-20.7,73,0.1s67.7-31,78.6,16.8c9.2,40.1-20.7,39.4-21,67C171.6,136.4,200.9,155.5,142.5,175.1z"/>
<path class="st1" d="M152.2,179c-37.8,14.5-40.5-14.8-70.4-18.3c-28.6-3.3-44,10.5-57-10.9C9.5,124.4,42.2,109.6,28,42.2
	c-7.3-34.5,34.5-29,71.2-15.8s59.3-45,80.4-0.7c17.7,37.1-4.9,42.4-5.8,69.9C172.4,135.1,181.2,167.8,152.2,179z"/>
<path class="st2" d="M24.9,170.3c-0.4,0-0.8-0.2-1.1-0.5c-0.4-0.6-0.3-1.4,0.3-1.9l37.4-27.3c0.6-0.4,1.3-0.3,1.8,0.2l12.9,15.1
	l83.1-53.2c0.6-0.4,1.4-0.2,1.8,0.4c0.4,0.6,0.2,1.4-0.4,1.8l-84.1,53.8c-0.6,0.4-1.3,0.2-1.7-0.3l-12.8-15.1L25.7,170
	C25.5,170.2,25.2,170.3,24.9,170.3z"/>
<path class="st2" d="M160.7,112.5c-0.2,0-0.4-0.1-0.6-0.2c-0.6-0.3-0.9-1.1-0.5-1.8l5.1-9.6l-12.2-0.1c-0.7,0-1.3-0.6-1.3-1.3
	c0-0.7,0.6-1.3,1.3-1.3l14.4,0.1c0.5,0,0.9,0.2,1.1,0.6c0.2,0.4,0.2,0.9,0,1.3l-6.1,11.6C161.7,112.2,161.2,112.5,160.7,112.5z"/>
<path class="st2" d="M102.3,65.6c-5.9,0-10.7-4.8-10.7-10.7s4.8-10.7,10.7-10.7c5.9,0,10.7,4.8,10.7,10.7S108.2,65.6,102.3,65.6z
	 M102.3,46.9c-4.4,0-8,3.6-8,8s3.6,8,8,8s8-3.6,8-8S106.8,46.9,102.3,46.9z"/>
<path class="st2" d="M130.8,69c-0.7,0-1.3-0.6-1.3-1.3V29.3c0-0.7,0.6-1.3,1.3-1.3h29.4c0.5,0,0.9,0.3,1.1,0.7
	c0.2,0.4,0.2,0.9,0,1.3l-4.8,8.1l3.8,7.9c0.2,0.4,0.2,0.9-0.1,1.3c-0.2,0.4-0.7,0.6-1.1,0.6l-27,0.2v19.6
	C132.1,68.4,131.5,69,130.8,69z M132.1,30.6v14.8l24.9-0.2l-3.2-6.6c-0.2-0.4-0.2-0.9,0.1-1.3l4-6.8L132.1,30.6L132.1,30.6z"/>
<path class="st2" d="M130.8,112.8c-0.7,0-1.3-0.6-1.3-1.3V87.2c0-0.7,0.6-1.3,1.3-1.3s1.3,0.6,1.3,1.3v24.3
	C132.1,112.2,131.5,112.8,130.8,112.8z"/>
<path class="st2" d="M81.7,148.7c-0.3,0-0.6-0.1-0.8-0.3c-1.4-1-2.2-2.6-2.2-4.4V92.7c0-0.8,0.2-1.7,0.6-2.4
	c0.1-0.3,0.2-0.6,0.3-0.9l4.8-13c-0.7,0.2-1.4,0.3-2.2,0.5c-6,1.8-10.7,11.2-11.8,14.4c-0.8,2.2-2.9,3.6-5.2,3.6
	c-0.6,0-1.3-0.1-1.9-0.3c-2.8-1-4.3-4.2-3.3-7c0.3-0.7,6.4-17.5,19-21.2c11.9-3.5,20.1,0.1,20.4,0.3c0.1,0.1,0.2,0.1,0.3,0.2
	c0.3,0.2,8.2,4.4,14.5,9.4c1.7,1.4,2.4,1.7,2.6,1.7c0.4-0.1,1.7-0.7,2.6-1.1l0.2-0.1c0.8-0.4,1.6-0.8,2.5-1.2
	c5.7-2.6,7.5-3.7,7.6-3.8c1.2-0.8,2.6-1.1,4.1-0.8c1.4,0.3,2.7,1.1,3.5,2.3c0.8,1.2,1.1,2.7,0.8,4.1s-1.1,2.7-2.3,3.5
	c-0.5,0.3-2.6,1.7-9.1,4.6c-0.8,0.4-1.5,0.7-2.2,1h-0.1c-5.7,2.8-9.7,4-17-1.8c-1.7-1.4-3.7-2.8-6-4.3l-4,11l16.9,17.9
	c1,1,1.5,2.4,1.5,3.8v12.6c0,0.7-0.6,1.3-1.3,1.3c-0.7,0-1.3-0.6-1.3-1.3v-12.6c0-0.7-0.3-1.4-0.8-1.9L95,92.8
	c-0.3-0.4-0.5-0.9-0.3-1.4l4.9-13.3c0.1-0.4,0.4-0.7,0.8-0.8c0.4-0.1,0.8-0.1,1.1,0.1c3,1.9,5.6,3.7,7.7,5.3c6.2,5,9,4,14.2,1.5h0.1
	c0.7-0.3,1.4-0.7,2.2-1.1c6.6-3,8.5-4.2,8.7-4.4c0.6-0.4,1.1-1.1,1.2-1.8c0.2-0.7,0-1.5-0.4-2.1c-0.9-1.3-2.6-1.7-3.9-0.8
	c-0.2,0.2-2.2,1.3-7.9,4c-0.9,0.4-1.7,0.8-2.5,1.2l-0.2,0.1c-2,1-3.1,1.4-3.9,1.4c-0.6,0-1.6-0.3-4.1-2.3c-6.1-4.8-13.8-9-14.1-9.2
	c-0.1,0-0.1-0.1-0.2-0.1c-0.3-0.1-7.6-3.4-18.6-0.1c-11.3,3.3-17,18.9-17.3,19.5c-0.5,1.5,0.2,3.1,1.7,3.6c1.4,0.5,3.1-0.3,3.6-1.7
	c0.1-0.1,5-13.5,13.6-16c1.6-0.5,3.2-0.8,4.8-1c0.5-0.1,0.9,0.1,1.2,0.5c0.3,0.4,0.4,0.8,0.2,1.3L82,90.4c-0.1,0.2-0.2,0.5-0.2,0.8
	c0,0.1-0.1,0.2-0.1,0.3c-0.2,0.4-0.3,0.9-0.3,1.3v51.3c0,0.9,0.4,1.7,1.1,2.3c0.6,0.4,0.7,1.3,0.3,1.9
	C82.5,148.5,82.2,148.7,81.7,148.7z"/>
<path class="st2" d="M88.4,143.1c-0.7,0-1.3-0.6-1.3-1.3v-42c0-0.7,0.5-1.3,1.2-1.3c0.8-0.1,1.6-0.3,2.4-0.7
	c0.5-0.3,1.2-0.2,1.6,0.3l14.9,15.9c0.2,0.2,0.4,0.6,0.4,0.9v13.6c0,0.8,0.4,1.6,1,2.2c0.6,0.5,0.6,1.3,0.2,1.9
	c-0.5,0.6-1.3,0.6-1.9,0.2c-1.3-1-2-2.6-2-4.2v-13.1L91,100.7c-0.4,0.2-0.8,0.3-1.2,0.4v40.8C89.7,142.5,89.1,143.1,88.4,143.1z"/>
</svg>
