<?xml version="1.0" encoding="utf-8"?>
<!-- Generator: Adobe Illustrator 25.4.1, SVG Export Plug-In . SVG Version: 6.00 Build 0)  -->
<svg version="1.1" id="Ebene_1" xmlns="http://www.w3.org/2000/svg" xmlns:xlink="http://www.w3.org/1999/xlink" x="0px" y="0px"
	 viewBox="0 0 120 120" style="enable-background:new 0 0 120 120;" xml:space="preserve">
<style type="text/css">
	.st0{fill:#060707;}
	.st1{fill:#010203;}
	.st2{fill:#FFFFFF;}
	.st3{fill:#010202;}
</style>
<circle class="st0" cx="60" cy="60" r="57.8"/>
<g>
	<path class="st1" d="M58.61,2.21c-0.12-0.04-0.25,0.07-0.37,0C58.37,2.21,58.49,2.21,58.61,2.21z"/>
	<path class="st1" d="M61.94,2.21c-0.06,0.12-0.12,0.02-0.18,0C61.82,2.21,61.88,2.21,61.94,2.21z"/>
	<path class="st1" d="M117.8,57.04c-0.03-0.03-0.1-0.06,0-0.09C117.8,56.98,117.8,57.01,117.8,57.04z"/>
	<path class="st1" d="M117.8,63.15c-0.04,0.03-0.06,0.01-0.05-0.03c0.01-0.02,0.03-0.04,0.05-0.06
		C117.8,63.09,117.8,63.12,117.8,63.15z"/>
	<path class="st2" d="M52.82,57.75c0.17,0.14,0.37,0.16,0.56,0.22c1.65,0.55,3.19,1.31,4.53,2.44c1.84,1.56,3.07,3.52,3.74,5.83
		c0.87,2.98,0.95,5.99,0.16,8.99c-0.9,3.43-2.96,6.05-5.96,7.92c-2.23,1.39-4.67,2.19-7.24,2.65c-1.69,0.3-3.39,0.42-5.1,0.42
		c-8.14,0-16.27,0-24.41,0c-0.73,0-0.63,0.08-0.63-0.65c0-17.03,0-34.05,0-51.08c0-0.76-0.1-0.65,0.67-0.65c7.89,0,15.78,0,23.67,0
		c2.21,0,4.4,0.13,6.57,0.55c1.76,0.35,3.46,0.88,5.03,1.78c2.48,1.42,4.1,3.51,4.87,6.24c0.69,2.46,0.77,4.96,0.25,7.46
		c-0.54,2.64-2,4.7-4.15,6.29c-0.68,0.51-1.4,0.95-2.15,1.34C53.08,57.58,52.93,57.62,52.82,57.75z M29.97,70.07
		c0,2.26,0,4.53,0,6.79c0,0.41,0.01,0.41,0.4,0.42c0.09,0,0.18,0,0.28,0c3.71,0,7.43-0.01,11.14-0.01c0.66,0,1.33-0.01,1.98-0.07
		c1.14-0.11,2.26-0.3,3.32-0.75c1.71-0.73,2.91-1.94,3.42-3.75c0.41-1.45,0.37-2.93,0.11-4.4c-0.32-1.84-1.22-3.31-2.91-4.22
		c-0.39-0.21-0.79-0.41-1.22-0.56c-1.34-0.48-2.72-0.64-4.13-0.64c-3.96,0-7.92,0-11.88,0c-0.09,0-0.19,0-0.28,0
		c-0.18-0.01-0.25,0.08-0.25,0.25c0,0.12,0,0.25,0,0.37C29.97,65.69,29.97,67.88,29.97,70.07z M36.44,55.04c0,0,0-0.01,0-0.01
		c1.86,0,3.73,0.01,5.59,0c1.12,0,2.2-0.22,3.24-0.64c1.7-0.7,2.82-1.89,3.22-3.71c0.25-1.17,0.26-2.36,0.02-3.53
		c-0.22-1.06-0.75-1.95-1.56-2.67c-0.58-0.52-1.27-0.86-2.01-1.11c-1.19-0.41-2.43-0.55-3.68-0.56c-3.62-0.02-7.24-0.01-10.86-0.01
		c-0.06,0-0.12,0-0.18,0c-0.17-0.01-0.26,0.06-0.25,0.24c0,0.09,0,0.18,0,0.28c0,3.73,0,7.46,0,11.18c0,0.06,0,0.12,0,0.18
		c0.01,0.34,0.01,0.34,0.37,0.35c0.11,0,0.22,0,0.32,0C32.59,55.04,34.52,55.04,36.44,55.04z"/>
	<path class="st2" d="M100.87,73.57c0.05,0.09,0.01,0.18-0.02,0.27c-0.86,2.56-2.04,4.95-3.83,7c-1.47,1.68-3.27,2.88-5.31,3.76
		c-1.91,0.83-3.92,1.28-5.98,1.48c-1.75,0.17-3.51,0.17-5.26-0.02c-3.17-0.35-6.14-1.29-8.79-3.11c-2.83-1.94-4.81-4.55-6.14-7.69
		c-0.88-2.09-1.39-4.27-1.58-6.52c-0.24-2.74-0.11-5.45,0.58-8.12c0.93-3.6,2.66-6.76,5.42-9.29c2.97-2.73,6.47-4.35,10.48-4.84
		c2.66-0.33,5.3-0.25,7.89,0.44c4.24,1.12,7.52,3.59,9.9,7.26c1.56,2.4,2.51,5.03,3.02,7.83c0.39,2.13,0.54,4.28,0.39,6.44
		c-0.03,0.38-0.02,0.38-0.39,0.39c-0.12,0-0.25,0-0.37,0c-8.68,0-17.35,0-26.03,0c-0.64,0-0.6-0.07-0.55,0.6
		c0.09,1.14,0.26,2.26,0.59,3.36c0.94,3.13,3.09,4.87,6.26,5.42c1.8,0.31,3.59,0.31,5.36-0.2c1.72-0.5,3.15-1.45,4.33-2.79
		c0.37-0.42,0.67-0.89,0.86-1.41c0.08-0.22,0.18-0.32,0.42-0.32c2.85,0.01,5.7,0.01,8.55,0.01
		C100.73,73.52,100.81,73.51,100.87,73.57z M91.15,62.17c0.05-0.21-0.04-0.4-0.08-0.59c-0.33-1.54-0.84-3.02-1.69-4.36
		c-0.92-1.45-2.21-2.37-3.88-2.77c-1.4-0.34-2.8-0.35-4.22-0.18c-2.05,0.25-3.74,1.18-5.08,2.74c-1.15,1.34-1.65,2.96-1.89,4.68
		c-0.08,0.59-0.08,0.53,0.45,0.53c5.31,0,10.62,0,15.94,0C90.85,62.22,91,62.26,91.15,62.17z"/>
	<path class="st2" d="M83.07,36.5c3.28,0,6.56,0,9.85,0c0.11,0,0.22,0,0.32,0c0.4,0.01,0.4,0.01,0.4,0.41c0,1.65,0,3.3,0,4.95
		c0,0.52,0.06,0.5-0.5,0.5c-4.39,0-8.78,0-13.17,0c-2.3,0-4.59,0-6.89,0c-0.12,0-0.25-0.01-0.37,0c-0.18,0.01-0.24-0.07-0.24-0.25
		c0.01-0.46,0-0.92,0-1.39c0-1.25,0-2.5,0-3.74c0-0.5-0.05-0.48,0.47-0.48C76.32,36.5,79.7,36.5,83.07,36.5z"/>
	<path class="st0" d="M29.97,70.07c0-2.19,0-4.38,0-6.56c0-0.12,0-0.25,0-0.37c-0.01-0.17,0.07-0.26,0.25-0.25c0.09,0,0.18,0,0.28,0
		c3.96,0,7.92,0,11.88,0c1.41,0,2.8,0.16,4.13,0.64c0.42,0.15,0.82,0.35,1.22,0.56c1.69,0.91,2.58,2.38,2.91,4.22
		c0.26,1.47,0.3,2.94-0.11,4.4c-0.52,1.81-1.71,3.03-3.42,3.75c-1.06,0.45-2.18,0.63-3.32,0.75c-0.66,0.07-1.32,0.07-1.98,0.07
		c-3.71,0-7.43,0.01-11.14,0.01c-0.09,0-0.18,0-0.28,0c-0.4-0.01-0.4-0.01-0.4-0.42C29.97,74.6,29.97,72.33,29.97,70.07z"/>
	<path class="st3" d="M36.44,55.04c-1.93,0-3.85,0-5.78,0c-0.11,0-0.22,0-0.32,0c-0.36-0.01-0.36-0.01-0.37-0.35
		c0-0.06,0-0.12,0-0.18c0-3.73,0-7.46,0-11.18c0-0.09,0.01-0.19,0-0.28c-0.01-0.18,0.08-0.25,0.25-0.24c0.06,0,0.12,0,0.18,0
		c3.62,0,7.24-0.01,10.86,0.01c1.25,0.01,2.49,0.15,3.68,0.56c0.73,0.25,1.42,0.59,2.01,1.11c0.81,0.72,1.34,1.61,1.56,2.67
		c0.24,1.18,0.23,2.36-0.02,3.53c-0.39,1.82-1.52,3.01-3.22,3.71c-1.04,0.43-2.12,0.64-3.24,0.64c-1.86,0.01-3.73,0-5.59,0
		C36.44,55.03,36.44,55.03,36.44,55.04z"/>
	<path class="st0" d="M91.15,62.17c-0.14,0.08-0.3,0.05-0.45,0.05c-5.31,0-10.62,0-15.94,0c-0.53,0-0.53,0.05-0.45-0.53
		c0.24-1.72,0.74-3.34,1.89-4.68c1.34-1.56,3.03-2.49,5.08-2.74c1.42-0.17,2.82-0.15,4.22,0.18c1.67,0.4,2.95,1.33,3.88,2.77
		c0.86,1.34,1.36,2.82,1.69,4.36C91.11,61.78,91.2,61.97,91.15,62.17z"/>
</g>
</svg>
