<?xml version="1.0" encoding="utf-8"?>
<!-- Generator: Adobe Illustrator 25.4.1, SVG Export Plug-In . SVG Version: 6.00 Build 0)  -->
<svg version="1.1" id="Ebene_1" xmlns="http://www.w3.org/2000/svg" xmlns:xlink="http://www.w3.org/1999/xlink" x="0px" y="0px"
	 viewBox="0 0 120 120" style="enable-background:new 0 0 120 120;" xml:space="preserve">
<style type="text/css">
	.st0{fill:#1E85BD;}
	.st1{fill:#FFFFFF;}
</style>
<circle class="st0" cx="60" cy="60" r="57.8"/>
<g>
	<path class="st1" d="M52.69,46.32c4.12,0,8.2,0,12.34,0c0,0.88,0.01,1.73,0.01,2.57c0,0.85,0,1.71,0,2.67
		c0.14-0.17,0.22-0.26,0.29-0.36c2.12-2.95,4.93-4.9,8.46-5.77c1.71-0.42,3.46-0.51,5.22-0.36c1.81,0.15,3.55,0.53,5.22,1.26
		c2.77,1.21,4.83,3.17,6.24,5.83c0.97,1.84,1.52,3.82,1.79,5.88c0.21,1.57,0.25,3.15,0.25,4.74c0,8.04,0,16.08,0,24.12
		c0,0.9,0,0.8-0.82,0.8c-3.8,0-7.61,0-11.41,0c-0.64,0-0.64,0-0.64-0.64c0-6.89,0-13.78,0-20.68c0-1.09-0.03-2.17-0.2-3.25
		C79.27,62.05,79,61,78.5,60.02c-0.87-1.7-2.23-2.76-4.1-3.13c-1.32-0.26-2.66-0.21-3.97,0.13c-2.2,0.57-3.69,1.95-4.56,4.03
		c-0.62,1.48-0.84,3.04-0.84,4.64c0,7.08,0,14.16,0,21.23c0,0.16,0,0.31,0,0.47c0,0.19-0.09,0.29-0.29,0.29c-0.12,0-0.25,0-0.37,0
		c-3.69,0-7.39,0-11.08,0c-0.65,0-0.66,0-0.66-0.68c0-13.36,0-26.73,0.01-40.09C52.65,46.72,52.67,46.53,52.69,46.32z"/>
	<path class="st1" d="M44.56,87.69c-0.23,0-0.39,0-0.56,0c-3.88,0-7.76,0-11.64,0c-0.03,0-0.06,0-0.09,0
		c-0.56,0-0.57-0.01-0.57-0.58c0-4.62,0-9.25,0-13.87c0-8.74,0-17.48,0-26.21c0-0.23,0.02-0.46,0.03-0.71c4.29,0,8.54,0,12.83,0
		C44.56,60.1,44.56,73.85,44.56,87.69z"/>
	<path class="st1" d="M38.08,40.96c-3.83,0.09-7.65-3.09-7.61-7.79c0.04-4.17,3.44-7.55,7.63-7.55c4.21,0,7.57,3.45,7.58,7.74
		C45.7,37.54,42.19,41.03,38.08,40.96z"/>
</g>
</svg>
