<?xml version="1.0" encoding="utf-8"?>
<!-- Generator: Adobe Illustrator 25.4.1, SVG Export Plug-In . SVG Version: 6.00 Build 0)  -->
<svg version="1.1" id="Ebene_1" xmlns="http://www.w3.org/2000/svg" xmlns:xlink="http://www.w3.org/1999/xlink" x="0px" y="0px"
	 viewBox="0 0 120 120" style="enable-background:new 0 0 120 120;" xml:space="preserve">
<style type="text/css">
	.st0{fill:#00605E;}
	.st1{fill:#FFFFFF;}
</style>
<circle class="st0" cx="60" cy="60" r="57.8"/>
<g>
	<path class="st1" d="M78.43,98.71c-2.6,0-5.2-0.01-7.8,0.01c-0.59,0-0.96-0.19-1.26-0.72c-5.36-9.43-10.73-18.84-16.11-28.26
		c-0.22-0.39-0.23-0.7-0.01-1.09c4.36-7.63,8.7-15.26,13.05-22.89c4.11-7.21,8.23-14.41,12.32-21.62c0.31-0.55,0.71-0.77,1.34-0.76
		c5.2,0.02,10.39,0.01,15.59,0.01c0.1,0,0.2,0,0.29,0c0.63,0.02,0.76,0.25,0.45,0.79c-1.59,2.8-3.19,5.59-4.78,8.38
		c-3.89,6.82-7.78,13.65-11.67,20.47c-2.98,5.22-5.96,10.44-8.94,15.65c-0.2,0.35-0.21,0.63-0.01,1
		c5.25,9.19,10.49,18.38,15.72,27.57c0.16,0.28,0.33,0.57,0.48,0.85c0.17,0.31,0.06,0.5-0.27,0.57c-0.17,0.04-0.36,0.03-0.54,0.03
		C83.7,98.71,81.06,98.71,78.43,98.71z"/>
	<path class="st1" d="M37.39,37.19c2.52,0,5.03,0.01,7.55-0.01c0.45,0,0.71,0.15,0.93,0.54c3.07,5.43,6.15,10.85,9.24,16.27
		c0.21,0.36,0.15,0.66-0.05,1c-3.56,5.84-7.11,11.69-10.66,17.54c-0.55,0.91-1.11,1.81-1.64,2.73c-0.27,0.48-0.6,0.69-1.17,0.69
		c-4.97-0.02-9.94-0.01-14.9-0.01c-0.11,0-0.23,0-0.34,0c-0.45-0.04-0.55-0.21-0.32-0.61c0.39-0.68,0.81-1.34,1.21-2.01
		c3.29-5.42,6.57-10.83,9.86-16.25c0.42-0.7,0.82-1.41,1.28-2.09c0.27-0.39,0.21-0.69,0-1.07c-1.35-2.35-2.68-4.71-4.02-7.07
		c-1.65-2.91-3.3-5.82-4.96-8.73c-0.01-0.01-0.02-0.03-0.02-0.04c-0.42-0.76-0.35-0.88,0.51-0.88
		C32.39,37.19,34.89,37.19,37.39,37.19z"/>
</g>
</svg>
