<?xml version="1.0" encoding="utf-8"?>
<!-- Generator: Adobe Illustrator 24.3.0, SVG Export Plug-In . SVG Version: 6.00 Build 0)  -->
<svg version="1.1" id="Ebene_1" xmlns="http://www.w3.org/2000/svg" xmlns:xlink="http://www.w3.org/1999/xlink" x="0px" y="0px"
	 viewBox="0 0 200 200" style="enable-background:new 0 0 200 200;" xml:space="preserve">
<style type="text/css">
	.st0{fill:#3C2B3F;}
</style>
<path class="st0" d="M49.36,173.21c-0.56,0-1.06-0.31-1.32-0.8c-0.26-0.49-0.23-1.08,0.08-1.54l50.45-74.49
	c0.28-0.41,0.73-0.65,1.22-0.66c0.5,0,0.95,0.23,1.24,0.63l53.17,74.42c0.33,0.46,0.37,1.06,0.11,1.56
	c-0.26,0.5-0.77,0.81-1.33,0.81L49.36,173.21C49.36,173.21,49.36,173.21,49.36,173.21z M99.84,99.85l-47.65,70.36l97.88-0.07
	L99.84,99.85z"/>
<path class="st0" d="M70.17,132.87c-0.4,0-0.8-0.16-1.09-0.47l-12.74-13.59c-0.57-0.6-0.54-1.55,0.07-2.12
	c0.61-0.56,1.55-0.53,2.12,0.07l12.74,13.59c0.57,0.6,0.54,1.55-0.07,2.12C70.91,132.74,70.54,132.87,70.17,132.87z"/>
<path class="st0" d="M43.01,173.21H17.62c-0.57,0-1.08-0.32-1.34-0.82c-0.26-0.5-0.2-1.11,0.13-1.57l39.81-53.93
	c0.49-0.67,1.43-0.81,2.1-0.32c0.67,0.49,0.81,1.43,0.32,2.1l-38.04,51.54h22.42c0.83,0,1.5,0.67,1.5,1.5S43.84,173.21,43.01,173.21
	z"/>
<path class="st0" d="M183,173.21h-23.82c-0.83,0-1.5-0.67-1.5-1.5s0.67-1.5,1.5-1.5h20.87l-38.69-53.05l-9.68,13.39
	c-0.49,0.67-1.42,0.82-2.09,0.34c-0.67-0.49-0.82-1.42-0.34-2.09l10.89-15.06c0.28-0.39,0.73-0.62,1.21-0.62c0,0,0,0,0,0
	c0.48,0,0.93,0.23,1.21,0.62l41.65,57.1c0.33,0.46,0.38,1.06,0.12,1.56S183.56,173.21,183,173.21z"/>
<path class="st0" d="M45.15,124.04c-0.54,0-1.07-0.29-1.33-0.81c-4.58-8.83-7-18.79-7-28.8c0-34.54,28.1-62.64,62.64-62.64
	c34.54,0,62.64,28.1,62.64,62.64c0,9.43-2.04,18.49-6.07,26.94c-0.36,0.75-1.25,1.07-2,0.71c-0.75-0.36-1.07-1.25-0.71-2
	c3.83-8.04,5.78-16.67,5.78-25.65c0-32.89-26.76-59.64-59.64-59.64c-32.89,0-59.64,26.76-59.64,59.64c0,9.67,2.24,18.89,6.66,27.42
	c0.38,0.74,0.09,1.64-0.64,2.02C45.62,123.99,45.39,124.04,45.15,124.04z"/>
<path class="st0" d="M47.24,152.41c-0.38,0-0.74-0.14-1.02-0.4l-4.74-4.41c-0.61-0.56-0.64-1.51-0.08-2.12
	c0.56-0.61,1.51-0.64,2.12-0.08l3.61,3.35l8.95-10.19c0.27-0.3,0.64-0.49,1.05-0.51c0.39-0.01,0.8,0.12,1.1,0.39l4.29,3.95
	c0.61,0.56,0.65,1.51,0.09,2.12c-0.56,0.61-1.51,0.65-2.12,0.09l-3.16-2.91l-8.95,10.2c-0.27,0.3-0.65,0.49-1.05,0.51
	C47.29,152.4,47.27,152.41,47.24,152.41z"/>
<path class="st0" d="M111.52,139.41c-0.37,0-0.73-0.13-1.02-0.4l-10.7-9.94l-10.86,9.94c-0.55,0.5-1.38,0.53-1.96,0.06l-5.43-4.41
	c-0.64-0.52-0.74-1.47-0.22-2.11c0.52-0.64,1.46-0.74,2.11-0.22l4.42,3.59l10.93-10c0.58-0.53,1.46-0.52,2.03,0.01l10.8,10.03
	l4.98-3.67c0.67-0.49,1.6-0.35,2.1,0.32c0.49,0.67,0.35,1.61-0.32,2.1l-5.98,4.41C112.14,139.31,111.83,139.41,111.52,139.41z"/>
<path class="st0" d="M152.98,151.81c-0.38,0-0.76-0.14-1.05-0.43l-8.86-8.7l-2.67,2.01c-0.66,0.5-1.6,0.37-2.1-0.3
	c-0.5-0.66-0.36-1.6,0.3-2.1l3.7-2.79c0.59-0.44,1.42-0.39,1.95,0.13l8.71,8.55l4.34-4.41c0.58-0.59,1.53-0.6,2.12-0.02
	c0.59,0.58,0.6,1.53,0.02,2.12l-5.4,5.48C153.76,151.67,153.37,151.81,152.98,151.81z"/>
<path class="st0" d="M98.79,93.53c-0.62,0-1.2-0.39-1.42-1l-7.42-21.21c-0.27-0.78,0.14-1.64,0.92-1.91l20.44-7.16
	c0.52-0.18,1.11-0.06,1.51,0.31c0.41,0.38,0.58,0.95,0.43,1.48l-2.06,7.88l6.75,5.42c0.43,0.34,0.63,0.89,0.54,1.42
	s-0.47,0.98-0.98,1.16l-19.02,6.66l1.73,4.95c0.27,0.78-0.14,1.64-0.92,1.91C99.12,93.5,98.95,93.53,98.79,93.53z M93.28,71.74
	l4.21,12.01l16.47-5.77l-5.4-4.33c-0.46-0.37-0.66-0.98-0.51-1.55l1.6-6.09L93.28,71.74z"/>
</svg>
