<?xml version="1.0" encoding="utf-8"?>
<!-- Generator: Adobe Illustrator 25.4.1, SVG Export Plug-In . SVG Version: 6.00 Build 0)  -->
<svg version="1.1" id="Ebene_1" xmlns="http://www.w3.org/2000/svg" xmlns:xlink="http://www.w3.org/1999/xlink" x="0px" y="0px"
	 viewBox="0 0 200 200" style="enable-background:new 0 0 200 200;" xml:space="preserve">
<style type="text/css">
	.st0{fill:#FFE9A1;}
	.st1{fill:none;stroke:#FFD255;stroke-width:2;stroke-linecap:round;stroke-linejoin:round;stroke-miterlimit:10;}
	.st2{fill:#3C2B3F;}
	.st3{fill:none;stroke:#3C2B3F;stroke-width:3;stroke-linecap:round;stroke-linejoin:round;stroke-miterlimit:10;}
	.st4{clip-path:url(#SVGID_00000031914552992232143050000000196306421603764122_);fill:#3C2B3F;}
</style>
<path class="st0" d="M190.3,62.1c10.1,42.3-25.4,46.7-34.8,73.8c-9,25.9-3.6,46.8-16.3,51.4c-47.4,17.1-33.1-37.5-76.6-36
	C14.7,153-2.3,129.4,34,91.7C59.9,65,8.1,37.5,50.1,16.8c26.1-12.9,38.4,13.3,63.8,20C150.5,46.3,183.4,33.3,190.3,62.1z"/>
<path class="st1" d="M178.2,55.5c19.1,39.1-15.9,26.7-19.2,55.2c-3.1,27.3,39,46.3,6,67.8c-44.5,28.9-28.3-14.9-117.2-4.5
	c-33.4,3.9-27.6-32.9-15.1-67.9s-42.9-56.5-0.7-76.7c35.4-16.9,40.4,4.6,66.7,5.6C136.4,36.3,165.2,28.9,178.2,55.5z"/>
<path class="st2" d="M89.6,169.2c-4,0-7.2-3.2-7.2-7.2v-59.5L56,76c-2.8-2.8-2.8-7.3,0-10.1c2.8-2.8,7.3-2.8,10.1,0l21.8,21.8
	c1.2-0.5,2.5-0.8,3.8-0.8h10.7c1.4,0,2.9,0.3,4.1,1l21.9-21.9c2.8-2.8,7.3-2.8,10.1,0l0,0c2.8,2.8,2.8,7.3,0,10.1l-26.9,26.9V162
	c0,4-3.2,7.2-7.2,7.2c-4,0-7.2-3.2-7.2-7.2l0.8-34.8H96l0.8,34.8C96.8,165.9,93.6,169.2,89.6,169.2z M61.1,66.1
	c-1.2,0-2.5,0.5-3.4,1.4c-1.9,1.9-1.9,4.9,0,6.8l26.8,26.8c0.2,0.2,0.3,0.5,0.3,0.8v60c0,2.7,2.2,4.8,4.8,4.8s4.8-2.2,4.8-4.8
	l-0.8-36c0-0.3,0.1-0.6,0.3-0.8c0.2-0.2,0.5-0.4,0.8-0.4h4.6c0.3,0,0.6,0.1,0.8,0.4c0.2,0.2,0.3,0.5,0.3,0.8l-0.8,36
	c0,2.6,2.2,4.8,4.8,4.8s4.8-2.2,4.8-4.8v-59.5c0-0.3,0.1-0.6,0.3-0.8L137,74.3c1.9-1.9,1.9-4.9,0-6.8l0,0c-1.9-1.9-4.9-1.9-6.8,0
	l-22.5,22.5c-0.4,0.4-1,0.5-1.5,0.2c-1.1-0.7-2.4-1.1-3.7-1.1H91.7c-1.2,0-2.4,0.3-3.5,0.9c-0.5,0.3-1,0.2-1.4-0.2L64.5,67.5
	C63.6,66.6,62.3,66.1,61.1,66.1z"/>
<path class="st2" d="M98.1,82.2c-7,0-12.7-5.7-12.7-12.7c0-7,5.7-12.7,12.7-12.7c7,0,12.7,5.7,12.7,12.7
	C110.8,76.5,105.1,82.2,98.1,82.2z M98.1,59.2c-5.7,0-10.3,4.6-10.3,10.3s4.6,10.3,10.3,10.3s10.3-4.6,10.3-10.3
	C108.4,63.8,103.8,59.2,98.1,59.2z"/>
<path class="st3" d="M134.3,55.7"/>
<g>
	<g>
		<defs>
			
				<rect id="SVGID_1_" x="127.1" y="18.5" transform="matrix(0.9569 -0.2904 0.2904 0.9569 -5.0753 43.1426)" width="31.5" height="40.4"/>
		</defs>
		<clipPath id="SVGID_00000031208381644201147850000016121562433189118107_">
			<use xlink:href="#SVGID_1_"  style="overflow:visible;"/>
		</clipPath>
		<path style="clip-path:url(#SVGID_00000031208381644201147850000016121562433189118107_);fill:#3C2B3F;" d="M134.5,62.3
			c-0.6,0-1.1-0.4-1.2-0.9l-6-19.7v0c0,0,0,0,0,0l-5-16.5c-0.1-0.3-0.1-0.7,0.1-1c0.2-0.3,0.4-0.5,0.8-0.6l27.7-8.4
			c0.5-0.1,0.9,0,1.3,0.3c0.3,0.3,0.5,0.8,0.4,1.3l-2.2,9.1l5.9,6.3c0.3,0.3,0.4,0.8,0.3,1.2c-0.1,0.4-0.4,0.8-0.9,0.9l-25.4,7.9
			l5.6,18.4c0.2,0.7-0.2,1.4-0.9,1.6C134.7,62.2,134.6,62.3,134.5,62.3z M125.1,25.6l4.2,14l23.4-7.3l-4.9-5.3
			c-0.3-0.3-0.4-0.8-0.3-1.2l1.8-7.5L125.1,25.6z"/>
	</g>
</g>
</svg>
