<?xml version="1.0" encoding="utf-8"?>
<!-- Generator: Adobe Illustrator 24.3.0, SVG Export Plug-In . SVG Version: 6.00 Build 0)  -->
<svg version="1.1" id="Ebene_1" xmlns="http://www.w3.org/2000/svg" xmlns:xlink="http://www.w3.org/1999/xlink" x="0px" y="0px"
	 viewBox="0 0 200 200" style="enable-background:new 0 0 200 200;" xml:space="preserve">
<style type="text/css">
	.st0{fill:#3C2B3F;}
	.st1{fill:none;stroke:#3C2B3F;stroke-width:3;stroke-linecap:round;stroke-linejoin:round;stroke-miterlimit:10;}
	.st2{clip-path:url(#SVGID_2_);fill:#3C2B3F;}
</style>
<path class="st0" d="M86.16,192.5c-5.03,0-9.12-4.09-9.12-9.12V107.7L43.44,74.1c-3.56-3.56-3.56-9.34,0-12.9
	c3.56-3.56,9.34-3.56,12.9,0L84,88.86c1.53-0.69,3.2-1.06,4.88-1.06h13.6c1.83,0,3.64,0.43,5.27,1.25l27.85-27.85
	c3.56-3.56,9.34-3.56,12.9,0l0,0c3.56,3.56,3.56,9.34,0,12.9l-34.18,34.18v75.07c0,5.03-4.09,9.12-9.12,9.12s-9.12-4.09-9.12-9.12
	l0.97-44.27h-2.74l0.97,44.26C95.28,188.41,91.19,192.5,86.16,192.5z M49.89,61.53c-1.57,0-3.14,0.6-4.33,1.79
	c-2.39,2.39-2.39,6.27,0,8.66l34.03,34.03c0.28,0.28,0.44,0.66,0.44,1.06v76.3c0,3.38,2.75,6.12,6.12,6.12s6.12-2.75,6.12-6.12
	l-1-45.76c-0.01-0.4,0.15-0.79,0.43-1.08c0.28-0.29,0.67-0.45,1.07-0.45h5.81c0.4,0,0.79,0.16,1.07,0.45
	c0.28,0.29,0.44,0.68,0.43,1.08l-1,45.77c0,3.34,2.75,6.09,6.12,6.09s6.12-2.75,6.12-6.12v-75.69c0-0.4,0.16-0.78,0.44-1.06
	l34.62-34.62c2.39-2.39,2.39-6.27,0-8.66l0,0c-2.39-2.39-6.27-2.39-8.66,0l-28.66,28.66c-0.5,0.5-1.27,0.58-1.86,0.21
	c-1.42-0.9-3.06-1.38-4.73-1.38h-13.6c-1.54,0-3.07,0.41-4.41,1.19c-0.59,0.34-1.33,0.24-1.81-0.24L54.22,63.32
	C53.03,62.13,51.46,61.53,49.89,61.53z"/>
<path class="st0" d="M96.98,81.91c-8.88,0-16.11-7.23-16.11-16.11s7.23-16.11,16.11-16.11c8.88,0,16.11,7.23,16.11,16.11
	S105.86,81.91,96.98,81.91z M96.98,52.69c-7.23,0-13.11,5.88-13.11,13.11c0,7.23,5.88,13.11,13.11,13.11s13.11-5.88,13.11-13.11
	C110.09,58.58,104.21,52.69,96.98,52.69z"/>
<path class="st1" d="M134.28,55.75"/>
<g>
	<defs>
		
			<rect id="SVGID_1_" x="130.1" y="5.65" transform="matrix(0.9569 -0.2904 0.2904 0.9569 -1.9906 44.2887)" width="36.22" height="46.41"/>
	</defs>
	<clipPath id="SVGID_2_">
		<use xlink:href="#SVGID_1_"  style="overflow:visible;"/>
	</clipPath>
	<path class="st2" d="M138.62,55.94c-0.64,0-1.24-0.42-1.43-1.06l-6.85-22.57c0,0,0-0.01,0-0.01c0-0.01-0.01-0.03-0.01-0.04
		l-5.74-18.92c-0.12-0.38-0.08-0.79,0.11-1.14c0.19-0.35,0.51-0.61,0.89-0.73l31.79-9.65c0.52-0.16,1.07-0.02,1.46,0.34
		c0.39,0.37,0.55,0.92,0.43,1.44L156.74,14l6.74,7.27c0.35,0.38,0.48,0.91,0.35,1.41c-0.13,0.5-0.51,0.89-1,1.05l-29.2,9.12
		l6.43,21.17c0.24,0.79-0.21,1.63-1,1.87C138.91,55.92,138.76,55.94,138.62,55.94z M127.88,13.9l4.88,16.06l26.91-8.4l-5.67-6.12
		c-0.34-0.37-0.48-0.88-0.36-1.37l2.08-8.62L127.88,13.9z"/>
</g>
</svg>
