<?xml version="1.0" encoding="utf-8"?>
<!-- Generator: Adobe Illustrator 24.3.0, SVG Export Plug-In . SVG Version: 6.00 Build 0)  -->
<svg version="1.1" id="Ebene_1" xmlns="http://www.w3.org/2000/svg" xmlns:xlink="http://www.w3.org/1999/xlink" x="0px" y="0px"
	 viewBox="0 0 200 200" style="enable-background:new 0 0 200 200;" xml:space="preserve">
<style type="text/css">
	.st0{fill:#3C2B3F;}
</style>
<path class="st0" d="M16.91,179.5c-0.46,0-0.92-0.21-1.21-0.62c-0.49-0.67-0.34-1.61,0.33-2.1l42.27-30.87
	c0.63-0.46,1.52-0.36,2.03,0.24l14.58,17.12l94.05-60.21c0.7-0.45,1.62-0.24,2.07,0.46c0.45,0.7,0.24,1.62-0.46,2.07l-95.15,60.91
	c-0.63,0.4-1.46,0.28-1.95-0.29l-14.53-17.06L17.8,179.21C17.53,179.41,17.22,179.5,16.91,179.5z"/>
<path class="st0" d="M170.56,114.09c-0.24,0-0.48-0.06-0.7-0.17c-0.73-0.39-1.01-1.3-0.62-2.03l5.78-10.9l-13.81-0.08
	c-0.83,0-1.5-0.68-1.49-1.51c0-0.83,0.67-1.46,1.51-1.49L177.51,98c0.52,0,1.01,0.28,1.28,0.73c0.27,0.45,0.28,1.01,0.04,1.47
	l-6.94,13.09C171.62,113.8,171.1,114.09,170.56,114.09z"/>
<path class="st0" d="M104.48,61.09c-6.65,0-12.07-5.41-12.07-12.07s5.41-12.07,12.07-12.07s12.07,5.41,12.07,12.07
	S111.14,61.09,104.48,61.09z M104.48,39.95c-5,0-9.07,4.07-9.07,9.07s4.07,9.07,9.07,9.07c5,0,9.07-4.07,9.07-9.07
	S109.48,39.95,104.48,39.95z"/>
<path class="st0" d="M136.69,64.91c-0.83,0-1.5-0.67-1.5-1.5V20c0-0.83,0.67-1.5,1.5-1.5h33.22c0.54,0,1.04,0.29,1.3,0.76
	c0.27,0.47,0.26,1.04-0.01,1.51l-5.42,9.21l4.34,8.91c0.23,0.46,0.2,1.01-0.07,1.45c-0.27,0.44-0.75,0.71-1.26,0.71l-30.59,0.24
	v22.12C138.19,64.24,137.52,64.91,136.69,64.91z M138.19,21.5v16.79l28.19-0.22l-3.65-7.5c-0.22-0.45-0.2-0.98,0.06-1.42l4.5-7.65
	H138.19z"/>
<path class="st0" d="M136.69,114.51c-0.83,0-1.5-0.67-1.5-1.5V85.52c0-0.83,0.67-1.5,1.5-1.5s1.5,0.67,1.5,1.5v27.49
	C138.19,113.83,137.52,114.51,136.69,114.51z"/>
<path class="st0" d="M81.19,155.08c-0.32,0-0.63-0.1-0.9-0.3c-1.56-1.18-2.46-2.98-2.46-4.94V91.79c0-0.94,0.22-1.87,0.63-2.72
	c0.09-0.38,0.19-0.71,0.31-1.03L84.2,73.3c-0.82,0.17-1.63,0.38-2.46,0.62c-6.8,2-12.06,12.7-13.37,16.3
	c-0.89,2.44-3.23,4.08-5.83,4.08c-0.72,0-1.43-0.12-2.11-0.37c-3.21-1.16-4.88-4.71-3.72-7.92c0.29-0.81,7.28-19.78,21.53-23.98
	c13.44-3.96,22.71,0.13,23.09,0.3c0.13,0.06,0.25,0.12,0.37,0.19c0.38,0.2,9.31,5.03,16.37,10.68c1.94,1.55,2.75,1.88,2.94,1.95
	c0.5-0.09,1.91-0.78,2.96-1.28l0.25-0.12c0.85-0.41,1.79-0.87,2.85-1.35c6.46-2.94,8.51-4.21,8.59-4.26
	c1.34-0.9,2.99-1.22,4.61-0.89c1.61,0.33,3.01,1.27,3.93,2.64c0.92,1.38,1.24,3.03,0.91,4.66c-0.33,1.62-1.27,3.02-2.65,3.94
	c-0.56,0.38-2.98,1.87-10.27,5.18c-0.92,0.42-1.73,0.81-2.48,1.17l-0.1,0.05c-6.49,3.14-11.03,4.58-19.28-2.02
	c-1.91-1.53-4.19-3.15-6.81-4.85l-4.56,12.39l19.09,20.27c1.09,1.16,1.69,2.66,1.69,4.25v14.24c0,0.83-0.67,1.5-1.5,1.5
	s-1.5-0.67-1.5-1.5v-14.24c0-0.82-0.31-1.6-0.87-2.19L96.14,91.8c-0.39-0.41-0.51-1.01-0.32-1.55l5.53-15
	c0.16-0.42,0.5-0.75,0.92-0.9c0.43-0.15,0.9-0.09,1.28,0.15c3.38,2.11,6.29,4.15,8.66,6.04c7.05,5.64,10.2,4.52,16.1,1.67l0.11-0.05
	c0.76-0.37,1.6-0.77,2.54-1.2c7.42-3.37,9.62-4.8,9.84-4.95c0.72-0.48,1.2-1.2,1.38-2.05c0.17-0.84,0.01-1.69-0.47-2.4
	c-0.98-1.47-2.96-1.87-4.41-0.9c-0.27,0.17-2.46,1.51-8.98,4.47c-1.04,0.47-1.95,0.91-2.79,1.32l-0.24,0.12
	c-2.23,1.08-3.46,1.64-4.42,1.59c-0.66-0.02-1.82-0.33-4.67-2.61c-6.85-5.48-15.56-10.19-15.92-10.38c-0.06-0.04-0.13-0.07-0.19-0.1
	c-0.34-0.15-8.61-3.8-21-0.15c-12.81,3.77-19.28,21.37-19.55,22.11c-0.59,1.65,0.27,3.49,1.92,4.08c1.63,0.59,3.51-0.31,4.09-1.92
	c0.06-0.15,5.67-15.3,15.34-18.15c1.79-0.53,3.61-0.91,5.42-1.13c0.52-0.06,1.04,0.15,1.36,0.56c0.33,0.41,0.41,0.96,0.23,1.45
	l-6.32,17.16c-0.09,0.24-0.17,0.51-0.24,0.85c-0.03,0.13-0.08,0.25-0.14,0.37c-0.25,0.46-0.37,0.97-0.37,1.49v58.05
	c0,1.01,0.46,1.94,1.27,2.55c0.66,0.5,0.79,1.44,0.29,2.1C82.09,154.88,81.65,155.08,81.19,155.08z"/>
<path class="st0" d="M88.72,148.74c-0.83,0-1.5-0.67-1.5-1.5V99.82c0-0.78,0.6-1.43,1.38-1.5c0.92-0.08,1.82-0.34,2.66-0.78
	c0.6-0.31,1.33-0.19,1.79,0.3l16.89,17.94c0.26,0.28,0.41,0.65,0.41,1.03v15.43c0,0.96,0.43,1.86,1.17,2.47
	c0.64,0.53,0.73,1.47,0.21,2.11c-0.53,0.64-1.47,0.73-2.11,0.21c-1.44-1.18-2.27-2.93-2.27-4.79V117.4L91.6,100.68
	c-0.45,0.17-0.91,0.32-1.38,0.42v46.13C90.22,148.06,89.55,148.74,88.72,148.74z"/>
</svg>
